<svg xmlns="http://www.w3.org/2000/svg" viewBox="0 0 285.66 116.43"><defs><style>.cls-1{fill:#f38b00;}.cls-2{fill:#009bde;}</style></defs><title>Asset 1</title><g id="Layer_2" data-name="Layer 2"><g id="Layer_1-2" data-name="Layer 1"><path class="cls-1" d="M87,85.19H75.32L85.38,64.77h.12L87,85.19Zm.56,9.18.72,8.11h12.83L96.81,55.34H77.7L53.55,102.48H66.63l4-8.11Z"/><polygon class="cls-1" points="119.01 81.86 120.88 81.86 130.07 69.48 141.95 69.48 129.27 85.33 137.05 102.48 124.43 102.48 119.36 89.09 117.47 89.09 114.62 102.48 103.82 102.48 113.83 55.34 124.64 55.34 119.01 81.86 119.01 81.86"/><path class="cls-1" d="M155.79,88.84c3.52,0,5.85.25,5.26,3-.74,3.46-2.24,4-6.76,4-1.65,0-4.71,0-4-3.58.64-3,2.8-3.46,5.45-3.46Zm3,13.64h10.8L174,81.86c2.41-11.37-1.94-12.75-13-12.75-7.72,0-15.19-.07-17.38,10.18h10.82c.62-3,2.45-3.58,5.16-3.58,4.7,0,4.49,2,3.83,5l-1.1,5.22h-.5c-.4-3.77-5.13-3.71-8.2-3.71-7.8,0-12.45,2.45-14.15,10.38-1.78,8.41,2.22,10.24,9.76,10.24,3.78,0,8.84-.74,10.61-5.29h.37l-1.41,4.92Z"/><path class="cls-1" d="M191.42,69.48l-1,4.65h.44c2.14-3.89,6.41-5,10.11-5,4.65,0,9.25.81,8.61,6.47h.51c1.58-4.72,6.41-6.47,10.55-6.47,7.61,0,10.84,3.14,9.21,10.82l-4.81,22.55h-10.8l4.06-19.11c.54-3.45,1.14-6-3.07-6s-5.62,2.81-6.36,6.35l-4,18.73H194.09l4.25-20c.52-3,.76-5.09-3-5.09-4.46,0-5.79,2.39-6.62,6.35l-4,18.73H173.92l7-33Z"/><path class="cls-1" d="M246.88,88.84c3.5,0,5.84.25,5.26,3-.73,3.46-2.23,4-6.77,4-1.63,0-4.7,0-3.95-3.58.65-3,2.8-3.46,5.46-3.46Zm3,13.64h10.81l4.38-20.62c2.42-11.37-1.92-12.75-13-12.75-7.74,0-15.22-.07-17.38,10.18h10.82c.62-3,2.46-3.58,5.14-3.58,4.73,0,4.49,2,3.86,5l-1.13,5.22h-.5c-.41-3.77-5.13-3.71-8.2-3.71-7.79,0-12.47,2.45-14.14,10.38-1.79,8.41,2.23,10.24,9.76,10.24,3.78,0,8.84-.74,10.62-5.29h.37l-1.42,4.92Z"/><path class="cls-1" d="M276.26,102.48H265.47l7-33h10.82l-7,33Z"/><path class="cls-2" d="M59.06,113.87A58.1,58.1,0,0,1,59.84,2.34C62.33,1.61,61.67,0,58.67,0,26.27,0,0,26.06,0,58.22s26.27,58.21,58.67,58.21C61.67,116.43,61.8,114.7,59.06,113.87Z"/><path class="cls-2" d="M28.78,71.85a46.21,46.21,0,0,1,46-51C98.9,20.89,106.15,31.67,107,31S98.29,8.83,69.94,8.83a46.24,46.24,0,0,0-43.1,62.94C27.69,74,29,74,28.78,71.85Z"/><path class="cls-2" d="M48.14,38.54c12-5.24,27.11-5.39,41.94-.21,10,3.48,15.74,8.44,16.21,8.24.79-.34-5.8-10.76-17.68-15.27a42.31,42.31,0,0,0-41.17,6.25C46.2,38.53,46.67,39.18,48.14,38.54Z"/><path class="cls-1" d="M285.66,60.34a6.07,6.07,0,1,1-6.06-6.06A6.07,6.07,0,0,1,285.66,60.34Z"/></g></g></svg>